<svg width="140" height="190" viewBox="0 0 140 190" fill="none" xmlns="http://www.w3.org/2000/svg">
<rect width="140" height="190" fill="#FCFCFC"/>
<path d="M31.6083 90.144C31.235 90.144 30.947 90.0427 30.7443 89.84C30.5523 89.6267 30.4563 89.328 30.4563 88.944V79.824C30.4563 79.4187 30.5523 79.1093 30.7443 78.896C30.947 78.6827 31.2136 78.576 31.5443 78.576C31.8323 78.576 32.051 78.6347 32.2003 78.752C32.3603 78.8587 32.5416 79.04 32.7443 79.296L38.3603 86.448H37.9283V79.76C37.9283 79.3867 38.0243 79.0987 38.2163 78.896C38.419 78.6827 38.707 78.576 39.0803 78.576C39.4536 78.576 39.7363 78.6827 39.9283 78.896C40.131 79.0987 40.2323 79.3867 40.2323 79.76V88.992C40.2323 89.344 40.1416 89.6267 39.9603 89.84C39.779 90.0427 39.5336 90.144 39.2243 90.144C38.9256 90.144 38.6856 90.0853 38.5043 89.968C38.3336 89.8507 38.147 89.664 37.9443 89.408L32.3443 82.256H32.7603V88.944C32.7603 89.328 32.6643 89.6267 32.4723 89.84C32.2803 90.0427 31.9923 90.144 31.6083 90.144ZM47.7352 90.176C46.6259 90.176 45.6499 89.936 44.8072 89.456C43.9752 88.9653 43.3245 88.2827 42.8552 87.408C42.3965 86.5333 42.1672 85.5147 42.1672 84.352C42.1672 83.4667 42.2952 82.672 42.5512 81.968C42.8179 81.2533 43.1965 80.6453 43.6872 80.144C44.1779 79.632 44.7645 79.2373 45.4472 78.96C46.1405 78.6827 46.9032 78.544 47.7352 78.544C48.8659 78.544 49.8472 78.784 50.6792 79.264C51.5112 79.744 52.1565 80.4213 52.6152 81.296C53.0845 82.16 53.3192 83.1733 53.3192 84.336C53.3192 85.2213 53.1859 86.0213 52.9192 86.736C52.6525 87.4507 52.2739 88.064 51.7832 88.576C51.2925 89.088 50.7059 89.4827 50.0232 89.76C49.3405 90.0373 48.5779 90.176 47.7352 90.176ZM47.7352 88.064C48.3645 88.064 48.8979 87.92 49.3352 87.632C49.7832 87.3333 50.1245 86.9067 50.3592 86.352C50.6045 85.7867 50.7272 85.12 50.7272 84.352C50.7272 83.1787 50.4659 82.272 49.9432 81.632C49.4205 80.9813 48.6845 80.656 47.7352 80.656C47.1165 80.656 46.5832 80.8 46.1352 81.088C45.6872 81.376 45.3459 81.7973 45.1112 82.352C44.8765 82.9067 44.7592 83.5733 44.7592 84.352C44.7592 85.5147 45.0205 86.4267 45.5432 87.088C46.0659 87.7387 46.7965 88.064 47.7352 88.064ZM60.9543 90.144C60.549 90.144 60.2396 90.032 60.0263 89.808C59.813 89.584 59.7063 89.2693 59.7063 88.864V79.856C59.7063 79.4507 59.813 79.136 60.0263 78.912C60.2396 78.688 60.549 78.576 60.9543 78.576C61.349 78.576 61.653 78.688 61.8663 78.912C62.0796 79.136 62.1863 79.4507 62.1863 79.856V88.864C62.1863 89.2693 62.0796 89.584 61.8663 89.808C61.6636 90.032 61.3596 90.144 60.9543 90.144ZM65.6083 90.144C65.2456 90.144 64.9683 90.0427 64.7763 89.84C64.5843 89.6373 64.4883 89.3547 64.4883 88.992V79.728C64.4883 79.3653 64.5896 79.0827 64.7923 78.88C65.0056 78.6773 65.2936 78.576 65.6563 78.576C65.9763 78.576 66.227 78.64 66.4083 78.768C66.6003 78.8853 66.7763 79.0933 66.9363 79.392L70.6323 86.144H70.0883L73.7843 79.392C73.9443 79.0933 74.115 78.8853 74.2963 78.768C74.4883 78.64 74.739 78.576 75.0483 78.576C75.411 78.576 75.6883 78.6773 75.8803 78.88C76.083 79.0827 76.1843 79.3653 76.1843 79.728V88.992C76.1843 89.3547 76.0883 89.6373 75.8963 89.84C75.7043 90.0427 75.427 90.144 75.0643 90.144C74.7016 90.144 74.419 90.0427 74.2163 89.84C74.0243 89.6373 73.9283 89.3547 73.9283 88.992V82.512H74.2803L71.3043 87.84C71.1763 88.0427 71.0376 88.1973 70.8883 88.304C70.7496 88.4 70.563 88.448 70.3283 88.448C70.0936 88.448 69.9016 88.3947 69.7523 88.288C69.603 88.1813 69.4696 88.032 69.3523 87.84L66.3443 82.496H66.7283V88.992C66.7283 89.3547 66.6323 89.6373 66.4403 89.84C66.259 90.0427 65.9816 90.144 65.6083 90.144ZM78.7919 90.144C78.4933 90.144 78.2479 90.0747 78.0559 89.936C77.8746 89.7973 77.7573 89.6107 77.7039 89.376C77.6613 89.1413 77.7093 88.88 77.8479 88.592L81.9439 79.616C82.1146 79.2533 82.3173 78.992 82.5519 78.832C82.7866 78.6613 83.0586 78.576 83.3679 78.576C83.6773 78.576 83.9493 78.6613 84.1839 78.832C84.4186 78.992 84.6159 79.2533 84.7759 79.616L88.9039 88.592C89.0426 88.88 89.0906 89.1467 89.0479 89.392C89.0159 89.6267 88.9093 89.8133 88.7279 89.952C88.5466 90.08 88.3119 90.144 88.0239 90.144C87.6613 90.144 87.3786 90.0587 87.1759 89.888C86.9839 89.7173 86.8133 89.4507 86.6639 89.088L85.7039 86.864L86.6959 87.552H80.0239L81.0159 86.864L80.0719 89.088C79.9119 89.4613 79.7413 89.7333 79.5599 89.904C79.3893 90.064 79.1333 90.144 78.7919 90.144ZM83.3359 81.36L81.2879 86.24L80.8559 85.616H85.8639L85.4319 86.24L83.3679 81.36H83.3359ZM95.8372 90.176C94.5679 90.176 93.4905 89.936 92.6052 89.456C91.7305 88.976 91.0639 88.304 90.6052 87.44C90.1465 86.576 89.9172 85.5627 89.9172 84.4C89.9172 83.504 90.0505 82.6987 90.3172 81.984C90.5945 81.2587 90.9892 80.6453 91.5012 80.144C92.0239 79.632 92.6532 79.2373 93.3892 78.96C94.1359 78.6827 94.9785 78.544 95.9172 78.544C96.4932 78.544 97.0692 78.608 97.6452 78.736C98.2212 78.864 98.7759 79.0773 99.3092 79.376C99.5332 79.504 99.6825 79.6693 99.7572 79.872C99.8425 80.064 99.8639 80.272 99.8212 80.496C99.7892 80.7093 99.7039 80.9013 99.5652 81.072C99.4372 81.232 99.2665 81.3387 99.0532 81.392C98.8505 81.4347 98.6159 81.392 98.3492 81.264C97.9972 81.072 97.6239 80.9333 97.2292 80.848C96.8345 80.752 96.4025 80.704 95.9332 80.704C95.1759 80.704 94.5412 80.848 94.0292 81.136C93.5172 81.4133 93.1332 81.8293 92.8772 82.384C92.6319 82.928 92.5092 83.6 92.5092 84.4C92.5092 85.6053 92.7972 86.5173 93.3732 87.136C93.9599 87.7547 94.8239 88.064 95.9652 88.064C96.3492 88.064 96.7439 88.0267 97.1492 87.952C97.5545 87.8773 97.9545 87.7707 98.3492 87.632L97.8852 88.64V85.568H96.4452C96.1252 85.568 95.8799 85.488 95.7092 85.328C95.5385 85.168 95.4532 84.9493 95.4532 84.672C95.4532 84.384 95.5385 84.1653 95.7092 84.016C95.8799 83.856 96.1252 83.776 96.4452 83.776H98.9572C99.2772 83.776 99.5172 83.8613 99.6772 84.032C99.8479 84.2027 99.9332 84.448 99.9332 84.768V88.48C99.9332 88.7573 99.8799 88.992 99.7732 89.184C99.6665 89.376 99.4852 89.5147 99.2292 89.6C98.7492 89.7707 98.2105 89.9093 97.6132 90.016C97.0159 90.1227 96.4239 90.176 95.8372 90.176ZM103.424 90C103.008 90 102.688 89.888 102.464 89.664C102.24 89.44 102.128 89.12 102.128 88.704V80.016C102.128 79.6 102.24 79.28 102.464 79.056C102.688 78.832 103.008 78.72 103.424 78.72H109.008C109.328 78.72 109.568 78.8053 109.728 78.976C109.899 79.136 109.984 79.3707 109.984 79.68C109.984 80 109.899 80.2453 109.728 80.416C109.568 80.576 109.328 80.656 109.008 80.656H104.496V83.296H108.64C108.971 83.296 109.216 83.3813 109.376 83.552C109.547 83.712 109.632 83.952 109.632 84.272C109.632 84.592 109.547 84.8373 109.376 85.008C109.216 85.168 108.971 85.248 108.64 85.248H104.496V88.064H109.008C109.328 88.064 109.568 88.1493 109.728 88.32C109.899 88.48 109.984 88.7147 109.984 89.024C109.984 89.344 109.899 89.5893 109.728 89.76C109.568 89.92 109.328 90 109.008 90H103.424ZM26.7216 112.144C26.423 112.144 26.1776 112.075 25.9856 111.936C25.8043 111.797 25.687 111.611 25.6336 111.376C25.591 111.141 25.639 110.88 25.7776 110.592L29.8736 101.616C30.0443 101.253 30.247 100.992 30.4816 100.832C30.7163 100.661 30.9883 100.576 31.2976 100.576C31.607 100.576 31.879 100.661 32.1136 100.832C32.3483 100.992 32.5456 101.253 32.7056 101.616L36.8336 110.592C36.9723 110.88 37.0203 111.147 36.9776 111.392C36.9456 111.627 36.839 111.813 36.6576 111.952C36.4763 112.08 36.2416 112.144 35.9536 112.144C35.591 112.144 35.3083 112.059 35.1056 111.888C34.9136 111.717 34.743 111.451 34.5936 111.088L33.6336 108.864L34.6256 109.552H27.9536L28.9456 108.864L28.0016 111.088C27.8416 111.461 27.671 111.733 27.4896 111.904C27.319 112.064 27.063 112.144 26.7216 112.144ZM31.2656 103.36L29.2176 108.24L28.7856 107.616H33.7936L33.3616 108.24L31.2976 103.36H31.2656ZM42.1365 112.144C41.7952 112.144 41.5125 112.069 41.2885 111.92C41.0752 111.76 40.8992 111.52 40.7605 111.2L36.7285 102.24C36.5792 101.92 36.5365 101.637 36.6005 101.392C36.6645 101.136 36.7978 100.939 37.0005 100.8C37.2032 100.651 37.4485 100.576 37.7365 100.576C38.0992 100.576 38.3765 100.661 38.5685 100.832C38.7605 100.992 38.9205 101.232 39.0485 101.552L42.5845 109.728H41.7845L45.3205 101.536C45.4592 101.216 45.6245 100.976 45.8165 100.816C46.0085 100.656 46.2752 100.576 46.6165 100.576C46.9045 100.576 47.1392 100.651 47.3205 100.8C47.5125 100.939 47.6298 101.136 47.6725 101.392C47.7258 101.637 47.6832 101.92 47.5445 102.24L43.5125 111.2C43.3632 111.52 43.1818 111.76 42.9685 111.92C42.7658 112.069 42.4885 112.144 42.1365 112.144ZM48.3935 112.144C48.0948 112.144 47.8495 112.075 47.6575 111.936C47.4762 111.797 47.3588 111.611 47.3055 111.376C47.2628 111.141 47.3108 110.88 47.4495 110.592L51.5455 101.616C51.7162 101.253 51.9188 100.992 52.1535 100.832C52.3882 100.661 52.6602 100.576 52.9695 100.576C53.2788 100.576 53.5508 100.661 53.7855 100.832C54.0202 100.992 54.2175 101.253 54.3775 101.616L58.5055 110.592C58.6442 110.88 58.6922 111.147 58.6495 111.392C58.6175 111.627 58.5108 111.813 58.3295 111.952C58.1482 112.08 57.9135 112.144 57.6255 112.144C57.2628 112.144 56.9802 112.059 56.7775 111.888C56.5855 111.717 56.4148 111.451 56.2655 111.088L55.3055 108.864L56.2975 109.552H49.6255L50.6175 108.864L49.6735 111.088C49.5135 111.461 49.3428 111.733 49.1615 111.904C48.9908 112.064 48.7348 112.144 48.3935 112.144ZM52.9375 103.36L50.8895 108.24L50.4575 107.616H55.4655L55.0335 108.24L52.9695 103.36H52.9375ZM61.3684 112.144C60.963 112.144 60.6537 112.032 60.4404 111.808C60.227 111.584 60.1204 111.269 60.1204 110.864V101.856C60.1204 101.451 60.227 101.136 60.4404 100.912C60.6537 100.688 60.963 100.576 61.3684 100.576C61.763 100.576 62.067 100.688 62.2804 100.912C62.4937 101.136 62.6004 101.451 62.6004 101.856V110.864C62.6004 111.269 62.4937 111.584 62.2804 111.808C62.0777 112.032 61.7737 112.144 61.3684 112.144ZM66.1344 112C65.729 112 65.4144 111.888 65.1904 111.664C64.977 111.44 64.8704 111.131 64.8704 110.736V101.952C64.8704 101.536 64.977 101.221 65.1904 101.008C65.4037 100.795 65.713 100.688 66.1184 100.688C66.513 100.688 66.817 100.795 67.0304 101.008C67.2437 101.221 67.3504 101.536 67.3504 101.952V109.904H71.6384C71.9797 109.904 72.241 109.995 72.4224 110.176C72.6144 110.357 72.7104 110.613 72.7104 110.944C72.7104 111.285 72.6144 111.547 72.4224 111.728C72.241 111.909 71.9797 112 71.6384 112H66.1344ZM74.1591 112.144C73.8605 112.144 73.6151 112.075 73.4231 111.936C73.2418 111.797 73.1245 111.611 73.0711 111.376C73.0285 111.141 73.0765 110.88 73.2151 110.592L77.3111 101.616C77.4818 101.253 77.6845 100.992 77.9191 100.832C78.1538 100.661 78.4258 100.576 78.7351 100.576C79.0445 100.576 79.3165 100.661 79.5511 100.832C79.7858 100.992 79.9831 101.253 80.1431 101.616L84.2711 110.592C84.4098 110.88 84.4578 111.147 84.4151 111.392C84.3831 111.627 84.2765 111.813 84.0951 111.952C83.9138 112.08 83.6791 112.144 83.3911 112.144C83.0285 112.144 82.7458 112.059 82.5431 111.888C82.3511 111.717 82.1805 111.451 82.0311 111.088L81.0711 108.864L82.0631 109.552H75.3911L76.3831 108.864L75.4391 111.088C75.2791 111.461 75.1085 111.733 74.9271 111.904C74.7565 112.064 74.5005 112.144 74.1591 112.144ZM78.7031 103.36L76.6551 108.24L76.2231 107.616H81.2311L80.7991 108.24L78.7351 103.36H78.7031ZM87.182 112C86.766 112 86.446 111.888 86.222 111.664C85.998 111.44 85.886 111.12 85.886 110.704V102.016C85.886 101.6 85.998 101.28 86.222 101.056C86.446 100.832 86.766 100.72 87.182 100.72H91.054C91.854 100.72 92.5367 100.837 93.102 101.072C93.6673 101.307 94.094 101.643 94.382 102.08C94.6807 102.517 94.83 103.04 94.83 103.648C94.83 104.32 94.638 104.891 94.254 105.36C93.87 105.829 93.342 106.144 92.67 106.304V106.048C93.4487 106.187 94.0513 106.496 94.478 106.976C94.9153 107.445 95.134 108.059 95.134 108.816C95.134 109.819 94.7873 110.603 94.094 111.168C93.4007 111.723 92.446 112 91.23 112H87.182ZM88.254 110.16H90.894C91.534 110.16 92.0033 110.037 92.302 109.792C92.6007 109.536 92.75 109.163 92.75 108.672C92.75 108.181 92.6007 107.813 92.302 107.568C92.0033 107.323 91.534 107.2 90.894 107.2H88.254V110.16ZM88.254 105.36H90.622C91.2407 105.36 91.6993 105.243 91.998 105.008C92.2967 104.773 92.446 104.421 92.446 103.952C92.446 103.493 92.2967 103.147 91.998 102.912C91.6993 102.677 91.2407 102.56 90.622 102.56H88.254V105.36ZM98.275 112C97.8697 112 97.555 111.888 97.331 111.664C97.1177 111.44 97.011 111.131 97.011 110.736V101.952C97.011 101.536 97.1177 101.221 97.331 101.008C97.5443 100.795 97.8537 100.688 98.259 100.688C98.6537 100.688 98.9577 100.795 99.171 101.008C99.3843 101.221 99.491 101.536 99.491 101.952V109.904H103.779C104.12 109.904 104.382 109.995 104.563 110.176C104.755 110.357 104.851 110.613 104.851 110.944C104.851 111.285 104.755 111.547 104.563 111.728C104.382 111.909 104.12 112 103.779 112H98.275ZM107.479 112C107.063 112 106.743 111.888 106.519 111.664C106.295 111.44 106.183 111.12 106.183 110.704V102.016C106.183 101.6 106.295 101.28 106.519 101.056C106.743 100.832 107.063 100.72 107.479 100.72H113.063C113.383 100.72 113.623 100.805 113.783 100.976C113.954 101.136 114.039 101.371 114.039 101.68C114.039 102 113.954 102.245 113.783 102.416C113.623 102.576 113.383 102.656 113.063 102.656H108.551V105.296H112.695C113.026 105.296 113.271 105.381 113.431 105.552C113.602 105.712 113.687 105.952 113.687 106.272C113.687 106.592 113.602 106.837 113.431 107.008C113.271 107.168 113.026 107.248 112.695 107.248H108.551V110.064H113.063C113.383 110.064 113.623 110.149 113.783 110.32C113.954 110.48 114.039 110.715 114.039 111.024C114.039 111.344 113.954 111.589 113.783 111.76C113.623 111.92 113.383 112 113.063 112H107.479Z" fill="url(#paint0_linear_1318_9)"/>
<defs>
<linearGradient id="paint0_linear_1318_9" x1="70" y1="74" x2="70" y2="116" gradientUnits="userSpaceOnUse">
<stop stop-color="#434343"/>
<stop offset="1"/>
</linearGradient>
</defs>
</svg>
